<svg width="225" height="40" viewBox="0 0 225 40" fill="none" xmlns="http://www.w3.org/2000/svg">
  <path
    fill-rule="evenodd"
    clip-rule="evenodd"
    d="M65.5516 10H60.3945V30.1472H64.4563V16.985H64.6195L69.746 30.0475H72.5117L77.6382 17.0331H77.8015V30.1472H81.8632V10H76.6959L71.2394 23.5369H71.0081L65.5516 10ZM88.0477 29.4659C89.1431 30.1156 90.4425 30.4388 91.9461 30.4388C93.4497 30.4388 94.7458 30.1156 95.8344 29.4659C96.9298 28.8094 97.7768 27.8984 98.3687 26.7297C98.964 25.5541 99.26 24.2066 99.26 22.6459C99.26 21.0853 98.9606 19.7241 98.3687 18.5553C97.7768 17.3797 96.9298 16.4688 95.8344 15.8191C94.7458 15.1625 93.4497 14.8359 91.9461 14.8359C90.4425 14.8359 89.1431 15.1625 88.0477 15.8191C86.9591 16.4688 86.1155 17.3831 85.5236 18.5553C84.9282 19.7206 84.6323 21.0956 84.6323 22.6459C84.6323 24.1962 84.9316 25.5575 85.5236 26.7297C86.1155 27.8984 86.9591 28.8094 88.0477 29.4659ZM93.6776 26.6025C93.2218 26.9978 92.6503 27.1938 91.9665 27.1938C91.276 27.1938 90.6943 26.9944 90.2248 26.6025C89.7588 26.2038 89.4084 25.6572 89.1703 24.9697C88.939 24.2822 88.8233 23.4984 88.8233 22.6184C88.8233 21.7384 88.939 20.9547 89.1703 20.2672C89.4084 19.5797 89.7588 19.0331 90.2248 18.6344C90.6977 18.2322 91.2828 18.0328 91.9665 18.0328C92.6503 18.0328 93.2184 18.2356 93.6776 18.6344C94.1335 19.0331 94.4805 19.5797 94.7118 20.2672C94.9499 20.9547 95.069 21.7384 95.069 22.6184C95.069 23.4984 94.9499 24.2822 94.7118 24.9697C94.4805 25.6572 94.1369 26.2038 93.6776 26.6025ZM109.843 15.0357V18.1845H107.047V25.5029C107.047 25.8913 107.104 26.1904 107.22 26.407C107.336 26.6166 107.499 26.7645 107.703 26.8504C107.918 26.9363 108.162 26.9776 108.438 26.9776C108.632 26.9776 108.826 26.9604 109.02 26.9295C109.133 26.9074 109.23 26.8876 109.312 26.8709C109.371 26.859 109.421 26.8487 109.465 26.8401L110.112 29.9579C109.904 30.0232 109.615 30.0988 109.241 30.1848C108.867 30.2776 108.411 30.3326 107.877 30.3532C106.883 30.391 106.013 30.257 105.264 29.951C104.523 29.6416 103.944 29.1638 103.533 28.5141C103.121 27.8645 102.917 27.0463 102.924 26.0563V18.1845H100.896V15.0357H102.924V11.416H102.927H107.047V15.0357H109.843ZM116.966 30.1438V21.4091L116.97 21.4125C116.976 20.7628 117.099 20.2094 117.337 19.7488C117.582 19.2847 117.919 18.9306 118.344 18.6866C118.776 18.4425 119.273 18.3222 119.834 18.3222C120.671 18.3222 121.324 18.58 121.787 19.0991C122.259 19.6147 122.491 20.34 122.484 21.2716V30.1438H126.604V20.5222C126.61 19.3431 126.396 18.3291 125.964 17.4834C125.539 16.6309 124.94 15.9812 124.164 15.5275C123.399 15.0703 122.498 14.84 121.467 14.84C120.337 14.84 119.399 15.0944 118.65 15.6066C117.902 16.1119 117.361 16.8131 117.024 17.7034H116.851V10H112.847V30.1438H116.966ZM136.615 30.4392C135.088 30.4392 133.771 30.123 132.669 29.4939C131.574 28.858 130.726 27.9608 130.135 26.7989C129.543 25.6302 129.243 24.2517 129.243 22.6567C129.243 21.0617 129.539 19.7383 130.135 18.5661C130.73 17.3939 131.563 16.4761 132.642 15.823C133.723 15.1664 134.996 14.8398 136.452 14.8398C137.431 14.8398 138.343 15.0014 139.19 15.3211C140.041 15.6373 140.782 16.1117 141.415 16.7477C142.054 17.3836 142.551 18.1845 142.905 19.147C143.259 20.1061 143.436 21.2267 143.436 22.5123V23.6639H133.319V23.6777C133.319 24.4236 133.455 25.0698 133.723 25.6164C134.002 26.1595 134.39 26.5789 134.894 26.8745C135.397 27.1702 135.992 27.318 136.683 27.318C137.142 27.318 137.561 27.2527 137.942 27.122C138.323 26.9914 138.649 26.7955 138.918 26.5308C139.19 26.2695 139.394 25.9464 139.537 25.5683L143.347 25.8227C143.153 26.7542 142.759 27.5655 142.156 28.2633C141.565 28.9508 140.796 29.4905 139.853 29.8755C138.918 30.257 137.836 30.4461 136.612 30.4461L136.615 30.4392ZM133.734 19.587C133.483 20.0332 133.348 20.5288 133.323 21.0686H139.558C139.558 20.4636 139.428 19.9308 139.17 19.4667C138.911 19.0027 138.554 18.6383 138.095 18.3736C137.642 18.1055 137.118 17.9714 136.52 17.9714C135.921 17.9714 135.339 18.1192 134.856 18.4148C134.38 18.7036 134.006 19.092 133.734 19.587ZM146.126 30.1393V30.1427L146.12 30.1393H146.126ZM146.126 30.1393V15.0349H150.12V17.6715H150.273C150.545 16.733 150.998 16.0249 151.637 15.5471C152.277 15.0624 153.012 14.8184 153.842 14.8184C154.049 14.8184 154.27 14.8321 154.508 14.8562C154.747 14.8837 154.957 14.918 155.138 14.9627V18.6821C154.944 18.6237 154.675 18.5721 154.335 18.524C153.991 18.4793 153.682 18.4552 153.396 18.4552C152.79 18.4552 152.246 18.5893 151.77 18.8574C151.3 19.1187 150.926 19.4865 150.647 19.9574C150.375 20.4284 150.239 20.9749 150.239 21.5902V30.1393H146.126ZM165.234 30.1438H158.21V10H165.292C167.286 10 169 10.4022 170.439 11.21C171.878 12.0109 172.984 13.1625 173.756 14.6613C174.535 16.1634 174.926 17.9613 174.926 20.0513C174.926 22.1413 174.535 23.9528 173.756 25.4619C172.984 26.9709 171.871 28.1294 170.419 28.9338C168.973 29.7416 167.245 30.1438 165.234 30.1438ZM162.401 26.4931H165.061C166.299 26.4931 167.34 26.2697 168.184 25.8228C169.034 25.3691 169.674 24.6712 170.099 23.7259C170.531 22.7737 170.745 21.55 170.745 20.0478C170.745 18.5456 170.527 17.3425 170.099 16.3972C169.674 15.4519 169.037 14.7575 168.194 14.3106C167.35 13.8638 166.306 13.6403 165.071 13.6403H162.401V26.4863V26.4931ZM187.478 15.0352V23.7114L187.482 23.7148C187.485 24.3886 187.356 24.9558 187.084 25.4164C186.819 25.8736 186.472 26.2208 186.04 26.458C185.608 26.6883 185.141 26.8017 184.645 26.8017C183.862 26.8017 183.24 26.5439 182.777 26.0248C182.311 25.5092 182.076 24.8011 182.07 23.9108V15.0386H177.95V24.6602C177.957 25.8392 178.171 26.8533 178.59 27.6989C179.015 28.5445 179.603 29.1942 180.359 29.6548C181.114 30.112 181.988 30.3423 182.981 30.3423C184.097 30.3423 185.043 30.0708 185.815 29.5345C186.597 28.9983 187.152 28.2867 187.489 27.3998H187.642V30.143H191.598V15.0352H187.478ZM201.61 30.4392C200.089 30.4392 198.779 30.1127 197.68 29.4561C196.592 28.7927 195.752 27.8748 195.167 26.7027C194.585 25.5305 194.296 24.1795 194.296 22.6498C194.296 21.1202 194.588 19.7452 195.177 18.5764C195.769 17.4042 196.612 16.4864 197.701 15.8333C198.789 15.1698 200.085 14.8398 201.589 14.8398C202.885 14.8398 204.021 15.0805 204.994 15.5583C205.967 16.0361 206.739 16.7098 207.307 17.5761C207.876 18.4423 208.189 19.4598 208.246 20.6252H204.358C204.249 19.8723 203.96 19.2639 203.487 18.8067C203.021 18.3427 202.412 18.1089 201.661 18.1089C201.021 18.1089 200.463 18.2877 199.987 18.6417C199.517 18.9889 199.15 19.4977 198.885 20.168C198.619 20.8383 198.487 21.6461 198.487 22.5983C198.487 23.5505 198.616 24.3823 198.874 25.0561C199.14 25.7333 199.511 26.2455 199.987 26.5995C200.463 26.9536 201.021 27.1323 201.661 27.1323C202.13 27.1323 202.552 27.0327 202.929 26.8367C203.31 26.6408 203.623 26.3555 203.868 25.9808C204.12 25.5992 204.283 25.1455 204.362 24.6127H208.25C208.185 25.7677 207.876 26.7817 207.321 27.6617C206.773 28.5348 206.015 29.2155 205.049 29.707C204.083 30.1986 202.936 30.4461 201.613 30.4461L201.61 30.4392ZM214.618 25.7914L214.618 25.7953H214.615L214.618 25.7914ZM215.002 20.7697V10H210.883V30.1438V30.1472H215.002V25.3453L216.12 24.0484L220.17 30.1438L220.173 30.1472H225L219.205 21.5776L224.714 15.0359H219.986L215.227 20.7697H215.002Z"
    fill="#383838"
  />
  <path
    fill-rule="evenodd"
    clip-rule="evenodd"
    d="M33.4252 22.8953C33.028 21.9241 27.4024 3.73329 27.4024 3.73329C27.4007 3.72649 27.3988 3.71938 27.3969 3.71196C27.3261 3.4369 27.1473 2.74184 27.5016 1.98541C27.9649 0.981998 29.1894 0.334631 30.3145 0.52884C31.2178 0.686618 31.7437 1.30586 31.9229 1.51679C31.9275 1.52222 31.9319 1.52738 31.936 1.53225C32.5316 2.40619 33.4583 3.08592 34.5834 3.40961C36.7013 3.99223 38.8522 3.1183 39.9443 1.37041C40.6391 0.302263 41.9959 -0.247995 43.3196 0.108055C44.6102 0.464105 45.4706 1.62936 45.5037 2.89172C45.5037 4.93091 46.8936 6.80826 48.9783 7.39089C48.9882 7.39329 48.9983 7.39579 49.0088 7.39836C49.2801 7.46502 49.764 7.58389 50.4013 7.55273C51.2286 7.52037 51.8904 7.29379 52.2545 7.13195C52.486 7.03484 53.2804 6.80826 54.1407 7.13195C55.1997 7.55273 55.8945 8.71799 55.7291 9.8185C55.5967 10.6277 55.0673 11.1779 54.8687 11.3398C54.8687 11.3398 40.3413 23.931 39.481 24.5784C38.6206 25.2257 37.2638 25.517 36.0394 25.161C34.815 24.8049 33.8222 23.8986 33.4252 22.8953ZM17.838 39.498C16.8783 38.9478 1.09348 27.9102 1.09348 27.9102C0.861838 27.7484 0.266187 27.2628 0.0676326 26.5184C-0.197106 25.4179 0.332371 24.1879 1.35822 23.67C2.18552 23.2169 3.01282 23.4111 3.24446 23.4758C4.27031 23.7995 5.42853 23.7995 6.52057 23.3787C8.57226 22.5695 9.73046 20.5627 9.49888 18.5558C9.39954 17.2935 10.1276 16.0311 11.3851 15.5456C12.6425 15.0601 14.0655 15.4486 14.8598 16.4519C16.1504 18.0703 18.4006 18.75 20.4191 17.9408C20.6508 17.8437 21.1472 17.6172 21.6436 17.2287C22.3055 16.7109 22.6694 16.1282 22.868 15.7722C23.0003 15.5456 23.4637 14.8982 24.3571 14.6393C25.4822 14.3157 26.7397 14.8335 27.3023 15.8045C27.6962 16.511 27.6017 17.2493 27.5678 17.5138L27.567 17.5201C27.567 17.5201 23.9601 36.1641 23.6621 37.1999C23.3975 38.2357 22.5039 39.2714 21.3127 39.7246C20.1213 40.1777 18.7646 40.0483 17.838 39.498Z"
    fill="#F19A4D"
  />
</svg>