<svg width="60" height="60" viewBox="0 0 60 60" fill="none" xmlns="http://www.w3.org/2000/svg">
    <path
            fill-rule="evenodd"
            clip-rule="evenodd"
            d="M33.4252 22.8953C33.028 21.9241 27.4024 3.73329 27.4024 3.73329C27.4007 3.72649 27.3988 3.71938 27.3969 3.71196C27.3261 3.4369 27.1473 2.74184 27.5016 1.98541C27.9649 0.981998 29.1894 0.334631 30.3145 0.52884C31.2178 0.686618 31.7437 1.30586 31.9229 1.51679C31.9275 1.52222 31.9319 1.52738 31.936 1.53225C32.5316 2.40619 33.4583 3.08592 34.5834 3.40961C36.7013 3.99223 38.8522 3.1183 39.9443 1.37041C40.6391 0.302263 41.9959 -0.247995 43.3196 0.108055C44.6102 0.464105 45.4706 1.62936 45.5037 2.89172C45.5037 4.93091 46.8936 6.80826 48.9783 7.39089C48.9882 7.39329 48.9983 7.39579 49.0088 7.39836C49.2801 7.46502 49.764 7.58389 50.4013 7.55273C51.2286 7.52037 51.8904 7.29379 52.2545 7.13195C52.486 7.03484 53.2804 6.80826 54.1407 7.13195C55.1997 7.55273 55.8945 8.71799 55.7291 9.8185C55.5967 10.6277 55.0673 11.1779 54.8687 11.3398C54.8687 11.3398 40.3413 23.931 39.481 24.5784C38.6206 25.2257 37.2638 25.517 36.0394 25.161C34.815 24.8049 33.8222 23.8986 33.4252 22.8953ZM17.838 39.498C16.8783 38.9478 1.09348 27.9102 1.09348 27.9102C0.861838 27.7484 0.266187 27.2628 0.0676326 26.5184C-0.197106 25.4179 0.332371 24.1879 1.35822 23.67C2.18552 23.2169 3.01282 23.4111 3.24446 23.4758C4.27031 23.7995 5.42853 23.7995 6.52057 23.3787C8.57226 22.5695 9.73046 20.5627 9.49888 18.5558C9.39954 17.2935 10.1276 16.0311 11.3851 15.5456C12.6425 15.0601 14.0655 15.4486 14.8598 16.4519C16.1504 18.0703 18.4006 18.75 20.4191 17.9408C20.6508 17.8437 21.1472 17.6172 21.6436 17.2287C22.3055 16.7109 22.6694 16.1282 22.868 15.7722C23.0003 15.5456 23.4637 14.8982 24.3571 14.6393C25.4822 14.3157 26.7397 14.8335 27.3023 15.8045C27.6962 16.511 27.6017 17.2493 27.5678 17.5138L27.567 17.5201C27.567 17.5201 23.9601 36.1641 23.6621 37.1999C23.3975 38.2357 22.5039 39.2714 21.3127 39.7246C20.1213 40.1777 18.7646 40.0483 17.838 39.498Z"
            fill="#F19A4D"
    />
</svg>